<svg width="33" height="14" viewBox="0 0 33 14" fill="none" xmlns="http://www.w3.org/2000/svg">
<path d="M11.0355 11.12L2.4115 3.2V11.12H1.4675V1.68H2.2835L10.8755 9.6V1.68H11.8355V11.12H11.0355ZM12.7315 12.016V0.783999H9.9955V7.584L2.5875 0.783999H0.5715V12.016H3.3075V5.2L10.7315 12.016H12.7315ZM0.1715 12.416V0.384H2.7315L9.5955 6.672V0.384H13.1315L14.6835 2.032V13.968H12.1875L5.2595 7.616V13.968H1.8195L0.1715 12.416ZM23.3458 11.12V2.656H17.9858V1.68H29.6818V2.656H24.3058V11.12H23.3458ZM25.1858 12.016V3.552H30.5618V0.783999H17.1058V3.552H22.4658V12.016H25.1858ZM16.7058 3.952V0.384H30.9618L32.5138 2.032V5.504H27.1378V13.968H23.7138L22.0658 12.416V5.504H18.3538L16.7058 3.952Z" fill="black"/>
</svg>
